<svg xmlns="http://www.w3.org/2000/svg" viewBox="0 0 1024 1024"><path d="M452.608 40.96a48 48 0 0 1 48 0l372.032 214.72a48 48 0 0 1 24 41.6V465.92l-0.256 4.672a32 32 0 0 1-64 0V374.592c0-1.28 0.064-2.624 0.256-3.904v-29.312L524.992 520.832l-2.816 1.6a31.808 31.808 0 0 0-13.44 26.112l1.6 355.008 129.728-74.88a33.024 33.024 0 0 1 3.2-2.176l83.2-48.128a32 32 0 1 1 32.064 55.424l-10.624 6.144-247.296 143.168a48 48 0 0 1-48 0L80.64 768.32a48 48 0 0 1-24-41.6v-429.44a48 48 0 0 1 24-41.6L452.608 40.896z m24 60.096L156.544 287.744c40.512 23.424 84.16 48.768 126.08 73.216l316.8-188.288-122.816-71.68z m-15.104 364.8l1.728 1.088a32 32 0 0 0 26.816 0l1.92-1.152a40711.68 40711.68 0 0 1 304.768-178.048l-134.08-78.208-316.864 188.352c47.616 27.904 89.024 52.288 115.712 68.032zM120.64 341.44v376.128l323.968 187.072V548.48a31.808 31.808 0 0 0-13.44-25.984 96.64 96.64 0 0 1-2.88-1.664l-108.48-63.296v121.28a32 32 0 0 1-64 0V420.224L120.64 341.376z m895.808 204.032a32 32 0 0 1-12.16 21.952l-206.592 159.872a32 32 0 0 1-44.096-4.672L665.6 617.6a32 32 0 1 1 49.024-41.152l68.288 81.408 182.144-141.056a32 32 0 0 1 51.456 28.608z"></path></svg>
