<svg xmlns="http://www.w3.org/2000/svg" viewBox="0 0 1024 1024"><path d="M275.648 992H160q-39.744 0-67.84-28.16Q64 935.808 64 896V396.8q0-49.088 39.808-77.824l352-253.888Q480.96 46.912 512 46.912t56.192 18.176l352 253.888q39.808 28.8 39.808 77.888V960a32 32 0 0 1-64 0V396.8q0-16.32-13.248-25.92l-352-253.888q-18.752-13.504-37.504 0l-352 253.888Q128 380.48 128 396.864V896q0 13.248 9.344 22.656 9.408 9.344 22.656 9.344h451.776q13.312 0 22.656-9.344 9.408-9.408 9.408-22.656v-256a32 32 0 0 1 64 0v256q0 39.744-28.16 67.84-28.096 28.16-67.84 28.16H275.712zM246.08 448h113.984a32 32 0 1 1 0 64h-113.92a32 32 0 0 1 0-64z m248.448 160H246.08a32 32 0 0 0 0 64h248.448a32 32 0 0 0 0-64zM246.08 768h248.448a32 32 0 1 1 0 64H246.08a32 32 0 0 1 0-64z"></path></svg>
