<svg t="1743681830477" viewBox="0 0 1024 1024" version="1.1" xmlns="http://www.w3.org/2000/svg" p-id="1545" xmlns:xlink="http://www.w3.org/1999/xlink"><path d="M512 497.536m-350.72 0a350.72 350.72 0 1 0 701.44 0 350.72 350.72 0 1 0-701.44 0Z" fill-opacity=".1" p-id="1546"></path><path d="M512 451.648l120.64-120.704 60.416 60.416L572.352 512l120.704 120.64-60.416 60.416L512 572.352l-120.64 120.704-60.416-60.416L451.648 512 330.944 391.36l60.416-60.416L512 451.648z" p-id="1547"></path><path d="M796.288 828.736a435.2 435.2 0 1 1 71.936-79.552l-138.88-249.792h130.56a348.16 348.16 0 1 0-107.008 251.2l43.392 78.08z" p-id="1548"></path></svg>