<?xml version="1.0" standalone="no"?>
<svg version="1.0" xmlns="http://www.w3.org/2000/svg"
 width="640.000000pt" height="640.000000pt" viewBox="0 0 640.000000 640.000000"
 preserveAspectRatio="xMidYMid meet">
<g transform="translate(0.000000,640.000000) scale(0.100000,-0.100000)"
fill="#1e5efd" stroke="none">
<path d="M3045 5731 c-138 -23 -319 -101 -427 -185 -75 -59 -157 -148 -198
-215 -14 -23 -56 -90 -94 -149 -38 -59 -79 -123 -91 -142 -59 -94 -128 -200
-158 -242 -17 -25 -45 -70 -62 -98 -16 -28 -44 -70 -61 -93 -17 -23 -39 -58
-49 -77 -9 -19 -24 -43 -33 -53 -8 -9 -40 -57 -71 -106 -87 -137 -159 -249
-356 -551 -59 -91 -117 -181 -130 -200 -12 -19 -53 -82 -91 -140 -38 -58 -71
-109 -73 -115 -2 -5 -50 -79 -105 -165 -56 -85 -135 -207 -176 -270 -102 -159
-165 -257 -245 -380 -37 -58 -82 -127 -100 -155 -18 -27 -75 -115 -127 -195
-53 -80 -101 -156 -108 -170 -7 -14 -26 -41 -42 -60 -15 -19 -28 -39 -28 -44
0 -5 -11 -24 -25 -42 -14 -18 -25 -35 -25 -38 0 -3 -14 -26 -32 -52 -80 -119
-120 -305 -98 -460 25 -173 117 -335 260 -455 112 -94 205 -141 375 -191 72
-21 99 -23 280 -22 168 0 218 4 315 23 63 13 126 28 140 33 14 5 46 13 72 18
27 5 69 19 95 31 27 12 64 28 83 36 119 49 291 150 390 229 140 110 330 318
415 453 78 124 177 320 169 333 -3 4 -112 8 -242 8 -130 0 -232 4 -226 8 6 4
240 355 519 780 279 424 510 772 513 772 4 0 66 -89 139 -198 72 -108 307
-459 522 -779 215 -320 391 -584 391 -587 0 -3 -106 -6 -236 -6 l-235 0 7 -22
c28 -91 179 -343 277 -463 78 -96 226 -241 307 -303 73 -56 251 -172 263 -172
4 0 41 -16 84 -36 43 -20 96 -45 118 -55 22 -10 69 -25 105 -32 36 -8 119 -27
185 -42 96 -21 156 -27 302 -32 165 -5 190 -4 280 17 205 47 357 129 476 254
32 33 70 81 84 106 15 25 35 55 44 68 10 13 30 60 46 105 26 75 28 94 28 222
-1 127 -3 147 -28 213 -26 71 -73 156 -154 278 -21 31 -42 64 -48 73 -5 9 -37
59 -71 111 -34 52 -70 109 -80 126 -11 17 -44 69 -74 115 -30 47 -59 92 -65
102 -5 9 -26 40 -46 69 -20 29 -67 100 -104 158 -38 58 -81 124 -97 147 -15
23 -28 44 -28 48 0 4 -9 19 -20 33 -22 28 -109 162 -176 270 -21 35 -49 76
-60 90 -12 15 -30 43 -40 62 -11 19 -46 76 -78 125 -264 402 -266 405 -376
578 -44 70 -206 320 -267 413 -7 11 -20 33 -29 49 -10 17 -34 53 -56 82 -21
29 -38 55 -38 58 0 3 -43 71 -95 150 -52 79 -98 152 -102 162 -4 10 -15 27
-26 38 -10 11 -25 33 -33 48 -8 15 -43 70 -77 122 -34 52 -83 127 -109 167
-59 90 -138 180 -192 217 -23 15 -62 42 -87 59 -55 38 -166 85 -264 113 -78
23 -330 34 -420 20z"/>
</g>
</svg>
