<svg xmlns="http://www.w3.org/2000/svg" viewBox="0 0 1024 1024"><path fill="currentColor" d="M593.862 788.582H424.67c-9.445 0-18.438 3.932-24.696 10.903-6.314 6.97-9.44 16.323-8.548 25.675 2.86 29.192 16.324 56.24 38.01 76.019 21.773 20.017 50.162 31.038 79.89 31.038 29.696 0 58.085-11.022 79.83-30.978 21.714-19.84 35.178-46.886 38.068-76.256.595-9.473-2.535-18.707-8.639-25.498-6.286-6.971-15.28-10.903-24.724-10.903zm-38.842 75.244c-25.082 22.877-66.605 22.818-91.567.06a68.202 68.202 0 0 1-17.158-24.723h125.823c-3.723 9.353-9.474 17.752-17.098 24.663zM818.609 648.343l-62.764-82.927V410.433c0-70.745-24.215-136.337-68.183-184.682-26.003-28.626-57.31-49.716-93.055-62.822-3.306-18.945-12.72-36.252-26.926-49.208-32.051-29.251-85.105-29.251-117.096 0a85.999 85.999 0 0 0-26.987 49.268c-35.714 13.046-67.022 34.136-93.026 62.791-43.937 48.434-68.183 114.026-68.183 184.653l.179 154.686-62.316 82.45c-8.757 9.354-13.582 21.507-13.582 34.257v40.331c0 27.644 22.46 50.043 50.043 50.043h544.812c27.61 0 50.011-22.4 50.011-50.043v-40.331c-.001-12.75-4.796-24.904-12.927-33.483zM535.776 149.882c-7.387-.656-19.302-1.907-26.57-1.907-7.297 0-19.689 1.252-27.047 1.907 12.42-20.255 44.384-16.502 53.617 0zM237.427 722.156l-.12-40.034 62.316-82.45c8.698-9.354 13.524-21.448 13.524-34.256V410.433c0-58.056 19.54-111.554 54.986-150.635 17.574-19.362 38.307-34.375 61.54-44.682 48.852-21.745 110.303-21.745 159.097 0 23.321 10.426 43.994 25.439 61.539 44.682 35.449 39.081 54.958 92.579 54.958 150.635v154.984c0 12.867 4.826 25.08 12.956 33.54l62.791 82.868.509 39.795-544.096.536z"></path></svg>
