<svg t="1711331911781" class="icon" viewBox="0 0 1024 1024" version="1.1" xmlns="http://www.w3.org/2000/svg" p-id="1471" width="64" height="64" xmlns:xlink="http://www.w3.org/1999/xlink"><path d="M739.7 609.5c-36.2-29.8-76.8-53.1-120.7-69.2-3.5-1.3-7-2.5-10.5-3.7 17.7-10.6 34.3-23.5 49.3-38.5 48.1-48 74.6-111.9 74.6-179.8 0-68-26.5-131.8-74.6-179.9-48.1-48-112-74.5-180.1-74.5s-132 26.5-180.1 74.5S223 250.3 223 318.3c0 67.9 26.5 131.8 74.6 179.8 14.9 14.8 31.2 27.6 48.7 38.2-10.2 3.4-20.2 7.2-30.2 11.4-49.2 20.8-93.4 50.5-131.3 88.4-37.9 37.9-67.7 82-88.5 131.1-21.4 51-32.3 105-32.3 160.7 0 17.7 14.3 32 32 32s32-14.3 32-32c0-192.2 156.6-348.6 349-348.6 80.8 0 159.7 28.3 222 79.6 13.6 11.2 33.8 9.3 45.1-4.3 11.2-13.7 9.3-33.8-4.4-45.1zM287.1 318.4c0-105 85.5-190.4 190.6-190.4s190.6 85.4 190.6 190.4-85.5 190.4-190.6 190.4-190.6-85.5-190.6-190.4z" fill="#727272" p-id="1472"></path><path d="M831.9 768.1V640.2h-64v127.9H639.8v64h128.1V960h64V832.1H960v-64z" fill="#669E8B" p-id="1473"></path></svg>
